<?xml version="1.0" encoding="utf-8"?>
<!-- Generator: Adobe Illustrator 22.1.0, SVG Export Plug-In . SVG Version: 6.00 Build 0)  -->
<svg version="1.1" id="Layer_1" xmlns="http://www.w3.org/2000/svg" xmlns:xlink="http://www.w3.org/1999/xlink" x="0px" y="0px"
	 viewBox="0 0 1417.323 1417.323" style="enable-background:new 0 0 1417.323 1417.323;" xml:space="preserve">
<style type="text/css">
	.st0{fill:#181EA9;}
</style>
<g>
	<path class="st0" d="M855.322,328.483l-79.127,79.121c-26.857-19.139-59.658-30.443-95.078-30.443
		c-90.565,0-164.239,73.674-164.239,164.239c0,81.236,59.293,148.844,136.867,161.916v59.397
		c-77.574,13.078-136.867,80.685-136.867,161.921c0,90.559,73.674,164.239,164.239,164.239c90.565,0,164.239-73.68,164.239-164.239
		c0-81.236-59.293-148.844-136.867-161.921v-59.397c77.574-13.072,136.867-80.68,136.867-161.916
		c0-35.421-11.305-68.222-30.443-95.079l79.121-79.127L855.322,328.483z M790.612,924.634c0,60.376-49.118,109.495-109.494,109.495
		c-60.377,0-109.495-49.118-109.495-109.495c0-60.376,49.118-109.495,109.495-109.495
		C741.494,815.139,790.612,864.257,790.612,924.634 M681.117,650.894c-60.377,0-109.495-49.118-109.495-109.494
		c0-60.377,49.118-109.495,109.495-109.495c60.376,0,109.494,49.118,109.494,109.495
		C790.612,601.776,741.494,650.894,681.117,650.894"/>
</g>
</svg>
