<?xml version="1.0" encoding="utf-8"?>
<!-- Generator: Adobe Illustrator 22.1.0, SVG Export Plug-In . SVG Version: 6.00 Build 0)  -->
<svg version="1.1" id="Layer_1" xmlns="http://www.w3.org/2000/svg" xmlns:xlink="http://www.w3.org/1999/xlink" x="0px" y="0px"
	 viewBox="0 0 1417.323 861.317" style="enable-background:new 0 0 1417.323 861.317;" xml:space="preserve">
<style type="text/css">
	.st0{fill:#181EA9;}
</style>
<path class="st0" d="M523.673,277.36c-50.976,0-92.446,41.473-92.446,92.449c0,50.976,41.469,92.446,92.446,92.446
	c50.976,0,92.446-41.469,92.446-92.446C616.118,318.833,574.649,277.36,523.673,277.36 M523.673,431.441
	c-33.984,0-61.632-27.647-61.632-61.631c0-33.984,27.647-61.632,61.632-61.632c33.981,0,61.631,27.647,61.631,61.632
	C585.304,403.793,557.654,431.441,523.673,431.441 M677.751,184.875h30.814v272.758h-30.814V184.875z M1232.43,281.984v175.648
	h-30.814V312.798h-61.632v144.834h-30.817V312.798h-61.631v144.834h-30.814V281.984H1232.43z M375.202,249.963l-44.538,44.535
	c-15.114-10.773-33.58-17.136-53.517-17.136c-50.973-0.003-92.446,41.469-92.446,92.446c0,45.725,33.374,83.78,77.038,91.138v33.433
	c-43.664,7.361-77.038,45.416-77.038,91.141c0,50.973,41.472,92.446,92.446,92.446c50.976,0,92.446-41.472,92.446-92.446
	c0-45.725-33.374-83.78-77.039-91.141v-33.433c43.664-7.358,77.039-45.412,77.039-91.138c0-19.937-6.363-38.404-17.136-53.517
	l44.535-44.538L375.202,249.963z M338.778,585.52c0,33.981-27.647,61.631-61.631,61.631c-33.981,0-61.632-27.651-61.632-61.631
	c0-33.984,27.651-61.632,61.632-61.632C311.131,523.889,338.778,551.536,338.778,585.52 M277.147,431.44
	c-33.981,0-61.632-27.647-61.632-61.631c0-33.984,27.651-61.632,61.632-61.632c33.984,0,61.631,27.647,61.631,61.632
	C338.778,403.793,311.131,431.44,277.147,431.44 M864.184,277.361c-26.209,0-49.969,9.592-66.902,27.008
	c-16.47,16.946-25.544,40.184-25.544,65.441c0,25.397,8.839,48.609,24.891,65.356c16.982,17.723,40.341,27.09,67.554,27.09
	c29.258,0,59.6-14.239,75.499-35.439l-24.653-18.489c-10.205,13.61-31.114,23.114-50.846,23.114
	c-32.024,0-54.919-18.691-60.379-47.767h149.743v-15.407c0-24.529-8.672-47.232-24.422-63.924
	C912.705,286.943,889.643,277.361,864.184,277.361 M804.545,352.86c6.637-26.988,29.317-44.682,59.639-44.682
	c29.209,0,50.957,17.739,56.916,44.682H804.545z"/>
</svg>
